{
  "accessors": [
    {
      "bufferView": 0,
      "componentType": 5125,
      "count": 216,
      "type": "SCALAR"
    },
    {
      "bufferView": 1,
      "componentType": 5126,
      "count": 129,
      "max": [
        44.1554679870605,
        29.8946952819824,
        38.7511405944824
      ],
      "min": [
        -24.4626140594482,
        -0.165447235107422,
        -38.7511405944824
      ],
      "type": "VEC3"
    },
    {
      "bufferView": 2,
      "componentType": 5126,
      "count": 129,
      "type": "VEC3"
    },
    {
      "bufferView": 3,
      "componentType": 5126,
      "count": 129,
      "type": "VEC4"
    },
    {
      "bufferView": 4,
      "componentType": 5126,
      "count": 129,
      "type": "VEC2"
    },
    {
      "bufferView": 5,
      "componentType": 5125,
      "count": 390,
      "type": "SCALAR"
    },
    {
      "bufferView": 6,
      "componentType": 5126,
      "count": 270,
      "max": [
        57.0013809204102,
        110.410140991211,
        54.2115364074707
      ],
      "min": [
        -57.0013885498047,
        19.9041862487793,
        -54.2115516662598
      ],
      "type": "VEC3"
    },
    {
      "bufferView": 7,
      "componentType": 5126,
      "count": 270,
      "type": "VEC3"
    },
    {
      "bufferView": 8,
      "componentType": 5126,
      "count": 270,
      "type": "VEC4"
    },
    {
      "bufferView": 9,
      "componentType": 5126,
      "count": 270,
      "type": "VEC2"
    }
  ],
  "asset": {
    "generator": "Adobe Substance 3D Painter 9.1.0",
    "version": "2.0"
  },
  "bufferViews": [
    {
      "buffer": 0,
      "byteLength": 864,
      "target": 34963
    },
    {
      "buffer": 0,
      "byteLength": 1548,
      "byteOffset": 864,
      "target": 34962
    },
    {
      "buffer": 0,
      "byteLength": 1548,
      "byteOffset": 2412,
      "target": 34962
    },
    {
      "buffer": 0,
      "byteLength": 2064,
      "byteOffset": 3960,
      "target": 34962
    },
    {
      "buffer": 0,
      "byteLength": 1032,
      "byteOffset": 6024,
      "target": 34962
    },
    {
      "buffer": 0,
      "byteLength": 1560,
      "byteOffset": 7056,
      "target": 34963
    },
    {
      "buffer": 0,
      "byteLength": 3240,
      "byteOffset": 8616,
      "target": 34962
    },
    {
      "buffer": 0,
      "byteLength": 3240,
      "byteOffset": 11856,
      "target": 34962
    },
    {
      "buffer": 0,
      "byteLength": 4320,
      "byteOffset": 15096,
      "target": 34962
    },
    {
      "buffer": 0,
      "byteLength": 2160,
      "byteOffset": 19416,
      "target": 34962
    }
  ],
  "buffers": [
    {
      "byteLength": 21576,
      "uri": "PBR - Metallic Roughness Alpha-blend.bin"
    }
  ],
  "images": [
    {
      "uri": "glass_baseColor.png"
    },
    {
      "uri": "glass_occlusionRoughnessMetallic.png"
    },
    {
      "uri": "legs_baseColor.png"
    }
  ],
  "materials": [
    {
      "alphaMode": "BLEND",
      "name": "glass",
      "occlusionTexture": {
        "index": 1
      },
      "pbrMetallicRoughness": {
        "baseColorTexture": {
          "index": 0
        },
        "metallicRoughnessTexture": {
          "index": 1
        }
      }
    },
    {
      "alphaMode": "BLEND",
      "name": "legs",
      "pbrMetallicRoughness": {
        "baseColorTexture": {
          "index": 2
        }
      }
    }
  ],
  "meshes": [
    {
      "name": "tank1_pCylinder6",
      "primitives": [
        {
          "attributes": {
            "NORMAL": 2,
            "POSITION": 1,
            "TANGENT": 3,
            "TEXCOORD_0": 4
          },
          "indices": 0,
          "material": 1,
          "mode": 4
        }
      ]
    },
    {
      "name": "tank1_pCylinder6",
      "primitives": [
        {
          "attributes": {
            "NORMAL": 7,
            "POSITION": 6,
            "TANGENT": 8,
            "TEXCOORD_0": 9
          },
          "indices": 5,
          "material": 0,
          "mode": 4
        }
      ]
    }
  ],
  "nodes": [
    {
      "children": [
        1,
        6
      ],
      "name": "RootNode"
    },
    {
      "children": [
        2,
        3,
        4,
        5
      ],
      "name": "tank1",
      "scale": [
        0.00999999977648258,
        0.00999999977648258,
        0.00999999977648258
      ]
    },
    {
      "name": "pCylinder6",
      "rotation": [
        0.213486582040787,
        0.839299380779266,
        -0.123256534337997,
        -0.484569728374481
      ],
      "scale": [
        0.0511853098869324,
        0.134580582380295,
        0.0511853098869324
      ],
      "translation": [
        -16.3033390045166,
        15.866096496582,
        28.2382106781006
      ]
    },
    {
      "name": "pCylinder7",
      "rotation": [
        0.213486582040787,
        0.839299380779266,
        0.123256534337997,
        0.484569728374481
      ],
      "scale": [
        0.0511853098869324,
        0.134580582380295,
        0.0511853098869324
      ],
      "translation": [
        -16.3033390045166,
        15.866096496582,
        -28.2382106781006
      ]
    },
    {
      "name": "pCylinder8",
      "rotation": [
        0.0,
        0.0,
        0.246513083577156,
        0.969139456748962
      ],
      "scale": [
        0.0511853098869324,
        0.134580597281456,
        0.0511853098869324
      ],
      "translation": [
        32.6066780090332,
        15.866096496582,
        0.0
      ]
    },
    {
      "name": "pSphere1",
      "scale": [
        0.570013761520386,
        0.570013761520386,
        0.570013761520386
      ],
      "translation": [
        0.0,
        76.9055557250977,
        0.0
      ]
    },
    {
      "children": [
        7,
        8
      ],
      "name": "tank1_pCylinder6",
      "scale": [
        0.00999999977648258,
        0.00999999977648258,
        0.00999999977648258
      ]
    },
    {
      "mesh": 0,
      "name": "tank1_pCylinder6"
    },
    {
      "mesh": 1,
      "name": "tank1_pCylinder6"
    }
  ],
  "samplers": [
    {
      "magFilter": 9729,
      "minFilter": 9985,
      "wrapS": 10497,
      "wrapT": 10497
    }
  ],
  "scene": 0,
  "scenes": [
    {
      "name": "Scene",
      "nodes": [
        0
      ]
    }
  ],
  "textures": [
    {
      "sampler": 0,
      "source": 0
    },
    {
      "sampler": 0,
      "source": 1
    },
    {
      "sampler": 0,
      "source": 2
    }
  ]
}