{
  "accessors": [
    {
      "bufferView": 0,
      "componentType": 5125,
      "count": 1260,
      "type": "SCALAR"
    },
    {
      "bufferView": 1,
      "componentType": 5126,
      "count": 254,
      "max": [
        14.7090616226196,
        14.790060043335,
        14.628472328186
      ],
      "min": [
        -14.3876247406006,
        -14.7900676727295,
        -14.6284446716309
      ],
      "type": "VEC3"
    },
    {
      "bufferView": 2,
      "componentType": 5126,
      "count": 254,
      "type": "VEC3"
    },
    {
      "bufferView": 3,
      "componentType": 5126,
      "count": 254,
      "type": "VEC4"
    },
    {
      "bufferView": 4,
      "componentType": 5126,
      "count": 254,
      "type": "VEC2"
    },
    {
      "bufferView": 5,
      "componentType": 5125,
      "count": 540,
      "type": "SCALAR"
    },
    {
      "bufferView": 6,
      "componentType": 5126,
      "count": 119,
      "max": [
        1.18566811084747,
        2.6027660369873,
        -7.89623260498047
      ],
      "min": [
        -1.18566811084747,
        0.231430023908615,
        -10.1515083312988
      ],
      "type": "VEC3"
    },
    {
      "bufferView": 7,
      "componentType": 5126,
      "count": 119,
      "type": "VEC3"
    },
    {
      "bufferView": 8,
      "componentType": 5126,
      "count": 119,
      "type": "VEC4"
    },
    {
      "bufferView": 9,
      "componentType": 5126,
      "count": 119,
      "type": "VEC2"
    },
    {
      "bufferView": 10,
      "componentType": 5125,
      "count": 540,
      "type": "SCALAR"
    },
    {
      "bufferView": 11,
      "componentType": 5126,
      "count": 119,
      "max": [
        1.20844900608063,
        5.12800025939941,
        -2.18796324729919
      ],
      "min": [
        -1.16288709640503,
        2.75666427612305,
        -4.44323778152466
      ],
      "type": "VEC3"
    },
    {
      "bufferView": 12,
      "componentType": 5126,
      "count": 119,
      "type": "VEC3"
    },
    {
      "bufferView": 13,
      "componentType": 5126,
      "count": 119,
      "type": "VEC4"
    },
    {
      "bufferView": 14,
      "componentType": 5126,
      "count": 119,
      "type": "VEC2"
    },
    {
      "bufferView": 15,
      "componentType": 5125,
      "count": 540,
      "type": "SCALAR"
    },
    {
      "bufferView": 16,
      "componentType": 5126,
      "count": 119,
      "max": [
        1.18566811084747,
        -2.34802103042603,
        -5.86608171463013
      ],
      "min": [
        -1.18566811084747,
        -4.71935749053955,
        -8.12135601043701
      ],
      "type": "VEC3"
    },
    {
      "bufferView": 17,
      "componentType": 5126,
      "count": 119,
      "type": "VEC3"
    },
    {
      "bufferView": 18,
      "componentType": 5126,
      "count": 119,
      "type": "VEC4"
    },
    {
      "bufferView": 19,
      "componentType": 5126,
      "count": 119,
      "type": "VEC2"
    },
    {
      "bufferView": 20,
      "componentType": 5125,
      "count": 540,
      "type": "SCALAR"
    },
    {
      "bufferView": 21,
      "componentType": 5126,
      "count": 119,
      "max": [
        1.18566811084747,
        -4.21601057052612,
        1.67243909835815
      ],
      "min": [
        -1.18566811084747,
        -6.58734655380249,
        -0.582836031913757
      ],
      "type": "VEC3"
    },
    {
      "bufferView": 22,
      "componentType": 5126,
      "count": 119,
      "type": "VEC3"
    },
    {
      "bufferView": 23,
      "componentType": 5126,
      "count": 119,
      "type": "VEC4"
    },
    {
      "bufferView": 24,
      "componentType": 5126,
      "count": 119,
      "type": "VEC2"
    },
    {
      "bufferView": 25,
      "componentType": 5125,
      "count": 540,
      "type": "SCALAR"
    },
    {
      "bufferView": 26,
      "componentType": 5126,
      "count": 119,
      "max": [
        1.18566811084747,
        2.75656914710999,
        5.64581060409546
      ],
      "min": [
        -1.18566811084747,
        0.385233044624329,
        3.39053511619568
      ],
      "type": "VEC3"
    },
    {
      "bufferView": 27,
      "componentType": 5126,
      "count": 119,
      "type": "VEC3"
    },
    {
      "bufferView": 28,
      "componentType": 5126,
      "count": 119,
      "type": "VEC4"
    },
    {
      "bufferView": 29,
      "componentType": 5126,
      "count": 119,
      "type": "VEC2"
    },
    {
      "bufferView": 30,
      "componentType": 5125,
      "count": 540,
      "type": "SCALAR"
    },
    {
      "bufferView": 31,
      "componentType": 5126,
      "count": 119,
      "max": [
        1.18566811084747,
        -2.20824408531189,
        8.72274780273438
      ],
      "min": [
        -1.18566811084747,
        -4.57958030700684,
        6.46747255325317
      ],
      "type": "VEC3"
    },
    {
      "bufferView": 32,
      "componentType": 5126,
      "count": 119,
      "type": "VEC3"
    },
    {
      "bufferView": 33,
      "componentType": 5126,
      "count": 119,
      "type": "VEC4"
    },
    {
      "bufferView": 34,
      "componentType": 5126,
      "count": 119,
      "type": "VEC2"
    },
    {
      "bufferView": 35,
      "componentType": 5125,
      "count": 540,
      "type": "SCALAR"
    },
    {
      "bufferView": 36,
      "componentType": 5126,
      "count": 119,
      "max": [
        1.18566811084747,
        1.12477195262909,
        10.0260562896729
      ],
      "min": [
        -1.18566811084747,
        -1.24656414985657,
        7.77078199386597
      ],
      "type": "VEC3"
    },
    {
      "bufferView": 37,
      "componentType": 5126,
      "count": 119,
      "type": "VEC3"
    },
    {
      "bufferView": 38,
      "componentType": 5126,
      "count": 119,
      "type": "VEC4"
    },
    {
      "bufferView": 39,
      "componentType": 5126,
      "count": 119,
      "type": "VEC2"
    },
    {
      "bufferView": 40,
      "componentType": 5125,
      "count": 792,
      "type": "SCALAR"
    },
    {
      "bufferView": 41,
      "componentType": 5126,
      "count": 253,
      "max": [
        0.509806036949158,
        4.15308141708374,
        9.187180519104
      ],
      "min": [
        -0.523482024669647,
        -5.86021947860718,
        -9.58513736724854
      ],
      "type": "VEC3"
    },
    {
      "bufferView": 42,
      "componentType": 5126,
      "count": 253,
      "type": "VEC3"
    },
    {
      "bufferView": 43,
      "componentType": 5126,
      "count": 253,
      "type": "VEC4"
    },
    {
      "bufferView": 44,
      "componentType": 5126,
      "count": 253,
      "type": "VEC2"
    }
  ],
  "asset": {
    "generator": "Adobe Substance 3D Painter 9.1.0",
    "version": "2.0"
  },
  "bufferViews": [
    {
      "buffer": 0,
      "byteLength": 5040,
      "target": 34963
    },
    {
      "buffer": 0,
      "byteLength": 3048,
      "byteOffset": 5040,
      "target": 34962
    },
    {
      "buffer": 0,
      "byteLength": 3048,
      "byteOffset": 8088,
      "target": 34962
    },
    {
      "buffer": 0,
      "byteLength": 4064,
      "byteOffset": 11136,
      "target": 34962
    },
    {
      "buffer": 0,
      "byteLength": 2032,
      "byteOffset": 15200,
      "target": 34962
    },
    {
      "buffer": 0,
      "byteLength": 2160,
      "byteOffset": 17232,
      "target": 34963
    },
    {
      "buffer": 0,
      "byteLength": 1428,
      "byteOffset": 19392,
      "target": 34962
    },
    {
      "buffer": 0,
      "byteLength": 1428,
      "byteOffset": 20820,
      "target": 34962
    },
    {
      "buffer": 0,
      "byteLength": 1904,
      "byteOffset": 22248,
      "target": 34962
    },
    {
      "buffer": 0,
      "byteLength": 952,
      "byteOffset": 24152,
      "target": 34962
    },
    {
      "buffer": 0,
      "byteLength": 2160,
      "byteOffset": 25104,
      "target": 34963
    },
    {
      "buffer": 0,
      "byteLength": 1428,
      "byteOffset": 27264,
      "target": 34962
    },
    {
      "buffer": 0,
      "byteLength": 1428,
      "byteOffset": 28692,
      "target": 34962
    },
    {
      "buffer": 0,
      "byteLength": 1904,
      "byteOffset": 30120,
      "target": 34962
    },
    {
      "buffer": 0,
      "byteLength": 952,
      "byteOffset": 32024,
      "target": 34962
    },
    {
      "buffer": 0,
      "byteLength": 2160,
      "byteOffset": 32976,
      "target": 34963
    },
    {
      "buffer": 0,
      "byteLength": 1428,
      "byteOffset": 35136,
      "target": 34962
    },
    {
      "buffer": 0,
      "byteLength": 1428,
      "byteOffset": 36564,
      "target": 34962
    },
    {
      "buffer": 0,
      "byteLength": 1904,
      "byteOffset": 37992,
      "target": 34962
    },
    {
      "buffer": 0,
      "byteLength": 952,
      "byteOffset": 39896,
      "target": 34962
    },
    {
      "buffer": 0,
      "byteLength": 2160,
      "byteOffset": 40848,
      "target": 34963
    },
    {
      "buffer": 0,
      "byteLength": 1428,
      "byteOffset": 43008,
      "target": 34962
    },
    {
      "buffer": 0,
      "byteLength": 1428,
      "byteOffset": 44436,
      "target": 34962
    },
    {
      "buffer": 0,
      "byteLength": 1904,
      "byteOffset": 45864,
      "target": 34962
    },
    {
      "buffer": 0,
      "byteLength": 952,
      "byteOffset": 47768,
      "target": 34962
    },
    {
      "buffer": 0,
      "byteLength": 2160,
      "byteOffset": 48720,
      "target": 34963
    },
    {
      "buffer": 0,
      "byteLength": 1428,
      "byteOffset": 50880,
      "target": 34962
    },
    {
      "buffer": 0,
      "byteLength": 1428,
      "byteOffset": 52308,
      "target": 34962
    },
    {
      "buffer": 0,
      "byteLength": 1904,
      "byteOffset": 53736,
      "target": 34962
    },
    {
      "buffer": 0,
      "byteLength": 952,
      "byteOffset": 55640,
      "target": 34962
    },
    {
      "buffer": 0,
      "byteLength": 2160,
      "byteOffset": 56592,
      "target": 34963
    },
    {
      "buffer": 0,
      "byteLength": 1428,
      "byteOffset": 58752,
      "target": 34962
    },
    {
      "buffer": 0,
      "byteLength": 1428,
      "byteOffset": 60180,
      "target": 34962
    },
    {
      "buffer": 0,
      "byteLength": 1904,
      "byteOffset": 61608,
      "target": 34962
    },
    {
      "buffer": 0,
      "byteLength": 952,
      "byteOffset": 63512,
      "target": 34962
    },
    {
      "buffer": 0,
      "byteLength": 2160,
      "byteOffset": 64464,
      "target": 34963
    },
    {
      "buffer": 0,
      "byteLength": 1428,
      "byteOffset": 66624,
      "target": 34962
    },
    {
      "buffer": 0,
      "byteLength": 1428,
      "byteOffset": 68052,
      "target": 34962
    },
    {
      "buffer": 0,
      "byteLength": 1904,
      "byteOffset": 69480,
      "target": 34962
    },
    {
      "buffer": 0,
      "byteLength": 952,
      "byteOffset": 71384,
      "target": 34962
    },
    {
      "buffer": 0,
      "byteLength": 3168,
      "byteOffset": 72336,
      "target": 34963
    },
    {
      "buffer": 0,
      "byteLength": 3036,
      "byteOffset": 75504,
      "target": 34962
    },
    {
      "buffer": 0,
      "byteLength": 3036,
      "byteOffset": 78540,
      "target": 34962
    },
    {
      "buffer": 0,
      "byteLength": 4048,
      "byteOffset": 81576,
      "target": 34962
    },
    {
      "buffer": 0,
      "byteLength": 2024,
      "byteOffset": 85624,
      "target": 34962
    }
  ],
  "buffers": [
    {
      "byteLength": 87648,
      "uri": "orb.bin"
    }
  ],
  "images": [
    {
      "uri": "brainwave_baseColor.png"
    },
    {
      "uri": "brainwave_occlusionRoughnessMetallic.png"
    },
    {
      "uri": "brainwave_emissive.png"
    },
    {
      "uri": "opacity_baseColor.png"
    },
    {
      "uri": "opacity_occlusionRoughnessMetallic.png"
    }
  ],
  "materials": [
    {
      "alphaMode": "OPAQUE",
      "emissiveFactor": [
        1.0,
        1.0,
        1.0
      ],
      "emissiveTexture": {
        "index": 2
      },
      "name": "brainwave",
      "occlusionTexture": {
        "index": 1
      },
      "pbrMetallicRoughness": {
        "baseColorTexture": {
          "index": 0
        },
        "metallicRoughnessTexture": {
          "index": 1
        }
      }
    },
    {
      "alphaMode": "BLEND",
      "name": "opacity",
      "occlusionTexture": {
        "index": 4
      },
      "pbrMetallicRoughness": {
        "baseColorTexture": {
          "index": 3
        },
        "metallicRoughnessTexture": {
          "index": 4
        }
      }
    }
  ],
  "meshes": [
    {
      "name": "pSphere122 brainwave_orb1",
      "primitives": [
        {
          "attributes": {
            "NORMAL": 2,
            "POSITION": 1,
            "TANGENT": 3,
            "TEXCOORD_0": 4
          },
          "indices": 0,
          "material": 1,
          "mode": 4
        }
      ]
    },
    {
      "name": "brainwave_orb1 pSphere123 brainwave1",
      "primitives": [
        {
          "attributes": {
            "NORMAL": 7,
            "POSITION": 6,
            "TANGENT": 8,
            "TEXCOORD_0": 9
          },
          "indices": 5,
          "material": 0,
          "mode": 4
        }
      ]
    },
    {
      "name": "brainwave_orb1 brainwave1 pSphere125",
      "primitives": [
        {
          "attributes": {
            "NORMAL": 12,
            "POSITION": 11,
            "TANGENT": 13,
            "TEXCOORD_0": 14
          },
          "indices": 10,
          "material": 0,
          "mode": 4
        }
      ]
    },
    {
      "name": "brainwave_orb1 brainwave1 pSphere126",
      "primitives": [
        {
          "attributes": {
            "NORMAL": 17,
            "POSITION": 16,
            "TANGENT": 18,
            "TEXCOORD_0": 19
          },
          "indices": 15,
          "material": 0,
          "mode": 4
        }
      ]
    },
    {
      "name": "brainwave_orb1 brainwave1 pSphere127",
      "primitives": [
        {
          "attributes": {
            "NORMAL": 22,
            "POSITION": 21,
            "TANGENT": 23,
            "TEXCOORD_0": 24
          },
          "indices": 20,
          "material": 0,
          "mode": 4
        }
      ]
    },
    {
      "name": "brainwave_orb1 brainwave1 pSphere128",
      "primitives": [
        {
          "attributes": {
            "NORMAL": 27,
            "POSITION": 26,
            "TANGENT": 28,
            "TEXCOORD_0": 29
          },
          "indices": 25,
          "material": 0,
          "mode": 4
        }
      ]
    },
    {
      "name": "brainwave_orb1 brainwave1 pSphere129",
      "primitives": [
        {
          "attributes": {
            "NORMAL": 32,
            "POSITION": 31,
            "TANGENT": 33,
            "TEXCOORD_0": 34
          },
          "indices": 30,
          "material": 0,
          "mode": 4
        }
      ]
    },
    {
      "name": "brainwave_orb1 brainwave1 pSphere130",
      "primitives": [
        {
          "attributes": {
            "NORMAL": 37,
            "POSITION": 36,
            "TANGENT": 38,
            "TEXCOORD_0": 39
          },
          "indices": 35,
          "material": 0,
          "mode": 4
        }
      ]
    },
    {
      "name": "brainwave_orb1 brainwave1 pCylinder13",
      "primitives": [
        {
          "attributes": {
            "NORMAL": 42,
            "POSITION": 41,
            "TANGENT": 43,
            "TEXCOORD_0": 44
          },
          "indices": 40,
          "material": 0,
          "mode": 4
        }
      ]
    }
  ],
  "nodes": [
    {
      "children": [
        1,
        3,
        5,
        7,
        9,
        11,
        13,
        15,
        17
      ],
      "name": "orb.obj",
      "scale": [
        0.00999999977648258,
        0.00999999977648258,
        0.00999999977648258
      ]
    },
    {
      "children": [
        2
      ],
      "name": "pSphere122 brainwave_orb1"
    },
    {
      "mesh": 0,
      "name": "pSphere122 brainwave_orb1"
    },
    {
      "children": [
        4
      ],
      "name": "brainwave_orb1 pSphere123 brainwave1"
    },
    {
      "mesh": 1,
      "name": "brainwave_orb1 pSphere123 brainwave1"
    },
    {
      "children": [
        6
      ],
      "name": "brainwave_orb1 brainwave1 pSphere125"
    },
    {
      "mesh": 2,
      "name": "brainwave_orb1 brainwave1 pSphere125"
    },
    {
      "children": [
        8
      ],
      "name": "brainwave_orb1 brainwave1 pSphere126"
    },
    {
      "mesh": 3,
      "name": "brainwave_orb1 brainwave1 pSphere126"
    },
    {
      "children": [
        10
      ],
      "name": "brainwave_orb1 brainwave1 pSphere127"
    },
    {
      "mesh": 4,
      "name": "brainwave_orb1 brainwave1 pSphere127"
    },
    {
      "children": [
        12
      ],
      "name": "brainwave_orb1 brainwave1 pSphere128"
    },
    {
      "mesh": 5,
      "name": "brainwave_orb1 brainwave1 pSphere128"
    },
    {
      "children": [
        14
      ],
      "name": "brainwave_orb1 brainwave1 pSphere129"
    },
    {
      "mesh": 6,
      "name": "brainwave_orb1 brainwave1 pSphere129"
    },
    {
      "children": [
        16
      ],
      "name": "brainwave_orb1 brainwave1 pSphere130"
    },
    {
      "mesh": 7,
      "name": "brainwave_orb1 brainwave1 pSphere130"
    },
    {
      "children": [
        18
      ],
      "name": "brainwave_orb1 brainwave1 pCylinder13"
    },
    {
      "mesh": 8,
      "name": "brainwave_orb1 brainwave1 pCylinder13"
    }
  ],
  "samplers": [
    {
      "magFilter": 9729,
      "minFilter": 9985,
      "wrapS": 10497,
      "wrapT": 10497
    }
  ],
  "scene": 0,
  "scenes": [
    {
      "name": "Scene",
      "nodes": [
        0
      ]
    }
  ],
  "textures": [
    {
      "sampler": 0,
      "source": 0
    },
    {
      "sampler": 0,
      "source": 1
    },
    {
      "sampler": 0,
      "source": 2
    },
    {
      "sampler": 0,
      "source": 3
    },
    {
      "sampler": 0,
      "source": 4
    }
  ]
}