{
  "accessors": [
    {
      "bufferView": 0,
      "componentType": 5125,
      "count": 2724,
      "type": "SCALAR"
    },
    {
      "bufferView": 1,
      "componentType": 5126,
      "count": 1131,
      "max": [
        16.4413242340088,
        15.6366271972656,
        18.3819561004639
      ],
      "min": [
        -16.4413242340088,
        -15.636625289917,
        -18.3819561004639
      ],
      "type": "VEC3"
    },
    {
      "bufferView": 2,
      "componentType": 5126,
      "count": 1131,
      "type": "VEC3"
    },
    {
      "bufferView": 3,
      "componentType": 5126,
      "count": 1131,
      "type": "VEC4"
    },
    {
      "bufferView": 4,
      "componentType": 5126,
      "count": 1131,
      "type": "VEC2"
    }
  ],
  "asset": {
    "generator": "Adobe Substance 3D Painter 9.1.0",
    "version": "2.0"
  },
  "bufferViews": [
    {
      "buffer": 0,
      "byteLength": 10896,
      "target": 34963
    },
    {
      "buffer": 0,
      "byteLength": 13572,
      "byteOffset": 10896,
      "target": 34962
    },
    {
      "buffer": 0,
      "byteLength": 13572,
      "byteOffset": 24468,
      "target": 34962
    },
    {
      "buffer": 0,
      "byteLength": 18096,
      "byteOffset": 38040,
      "target": 34962
    },
    {
      "buffer": 0,
      "byteLength": 9048,
      "byteOffset": 56136,
      "target": 34962
    }
  ],
  "buffers": [
    {
      "byteLength": 65184,
      "uri": "orb1.bin"
    }
  ],
  "images": [
    {
      "uri": "standardSurface3SG_baseColor.png"
    },
    {
      "uri": "standardSurface3SG_occlusionRoughnessMetallic.png"
    },
    {
      "uri": "standardSurface3SG_emissive.png"
    }
  ],
  "materials": [
    {
      "alphaMode": "BLEND",
      "emissiveFactor": [
        1.0,
        1.0,
        1.0
      ],
      "emissiveTexture": {
        "index": 2
      },
      "name": "standardSurface3SG",
      "occlusionTexture": {
        "index": 1
      },
      "pbrMetallicRoughness": {
        "baseColorTexture": {
          "index": 0
        },
        "metallicRoughnessTexture": {
          "index": 1
        }
      }
    }
  ],
  "meshes": [
    {
      "name": "orb1",
      "primitives": [
        {
          "attributes": {
            "NORMAL": 2,
            "POSITION": 1,
            "TANGENT": 3,
            "TEXCOORD_0": 4
          },
          "indices": 0,
          "material": 0,
          "mode": 4
        }
      ]
    }
  ],
  "nodes": [
    {
      "children": [
        1
      ],
      "name": "orb1.obj",
      "scale": [
        0.00999999977648258,
        0.00999999977648258,
        0.00999999977648258
      ]
    },
    {
      "children": [
        2
      ],
      "name": "orb1"
    },
    {
      "mesh": 0,
      "name": "orb1"
    }
  ],
  "samplers": [
    {
      "magFilter": 9729,
      "minFilter": 9985,
      "wrapS": 10497,
      "wrapT": 10497
    }
  ],
  "scene": 0,
  "scenes": [
    {
      "name": "Scene",
      "nodes": [
        0
      ]
    }
  ],
  "textures": [
    {
      "sampler": 0,
      "source": 0
    },
    {
      "sampler": 0,
      "source": 1
    },
    {
      "sampler": 0,
      "source": 2
    }
  ]
}